<?xml version="1.0" encoding="UTF-8" standalone="no"?>
<!-- Created with Inkscape (http://www.inkscape.org/) -->

<svg
   xmlns:dc="http://purl.org/dc/elements/1.1/"
   xmlns:cc="http://creativecommons.org/ns#"
   xmlns:rdf="http://www.w3.org/1999/02/22-rdf-syntax-ns#"
   xmlns:svg="http://www.w3.org/2000/svg"
   xmlns="http://www.w3.org/2000/svg"
   xmlns:sodipodi="http://sodipodi.sourceforge.net/DTD/sodipodi-0.dtd"
   xmlns:inkscape="http://www.inkscape.org/namespaces/inkscape"
   width="210mm"
   height="297mm"
   id="svg3617"
   version="1.1"
   inkscape:version="0.48.2 r9819"
   sodipodi:docname="New document 6">
  <defs
     id="defs3" />
  <sodipodi:namedview
     inkscape:document-units="mm"
     id="base"
     pagecolor="#ffffff"
     bordercolor="#666666"
     borderopacity="1.0"
     inkscape:pageopacity="0.0"
     inkscape:pageshadow="2"
     inkscape:zoom="1.3504346"
     inkscape:cx="88.425369"
     inkscape:cy="902.58006"
     inkscape:current-layer="layer1"
     showgrid="true"
     inkscape:snap-global="false"
     inkscape:window-width="1366"
     inkscape:window-height="654"
     inkscape:window-x="0"
     inkscape:window-y="0"
     inkscape:window-maximized="1">
    <inkscape:grid
       type="xygrid"
       id="grid3686" />
  </sodipodi:namedview>
  <metadata
     id="metadata4">
    <rdf:RDF>
      <cc:Work
         rdf:about="">
        <dc:format>image/svg+xml</dc:format>
        <dc:type
           rdf:resource="http://purl.org/dc/dcmitype/StillImage" />
        <dc:title></dc:title>
      </cc:Work>
    </rdf:RDF>
  </metadata>
  <g
     inkscape:label="Layer 1"
     inkscape:groupmode="layer"
     id="layer1">
    <g
       id="g3465"
       transform="matrix(0.43385347,0,0,-0.43385347,-4.9998658,106.44085)">
      <g
         id="g3467">
        <path
           d="m 131.354,25.229 v -7.436 c 0,-0.572 -0.467,-1.039 -1.04,-1.039 h -16.091 c -0.573,0 -1.04,0.467 -1.04,1.039 v 7.436 c 2.986,-0.311 6.018,-0.471 9.085,-0.471 3.067,0 6.099,0.161 9.086,0.471 z"
           id="path3469"
           inkscape:connector-curvature="0"
           style="fill:none" />
        <path
           d="m 67.313,44.2 -5.236,-5.236 c -0.251,-0.252 -0.538,-0.305 -0.735,-0.305 -0.197,0 -0.484,0.053 -0.736,0.305 L 49.228,50.341 c -0.252,0.252 -0.305,0.541 -0.305,0.736 0,0.197 0.053,0.484 0.304,0.734 l 5.2,5.201 c 3.842,-4.7 8.162,-8.995 12.886,-12.812 z"
           id="path3471"
           inkscape:connector-curvature="0"
           style="fill:none" />
        <path
           d="m 190.11,57.013 5.2,-5.199 c 0.405,-0.406 0.405,-1.066 0,-1.473 L 183.932,38.964 c -0.252,-0.252 -0.539,-0.305 -0.736,-0.305 -0.196,0 -0.483,0.053 -0.735,0.305 l -5.237,5.236 c 4.723,3.817 9.043,8.112 12.886,12.813 z"
           id="path3473"
           inkscape:connector-curvature="0"
           style="fill:none" />
        <path
           d="m 28.058,102.919 c -0.572,0 -1.039,0.467 -1.039,1.041 v 16.09 c 0,0.574 0.467,1.041 1.039,1.041 h 7.061 c -0.287,-2.877 -0.436,-5.795 -0.436,-8.746 0,-3.184 0.176,-6.328 0.508,-9.426 h -7.133 z"
           id="path3475"
           inkscape:connector-curvature="0"
           style="fill:none" />
        <path
           d="m 54.125,167.302 -4.896,4.895 c -0.252,0.252 -0.305,0.539 -0.305,0.736 0,0.195 0.053,0.482 0.305,0.734 l 11.377,11.379 c 0.252,0.252 0.539,0.305 0.736,0.305 0.195,0 0.482,-0.053 0.734,-0.305 l 4.859,-4.859 c -4.701,-3.842 -8.995,-8.163 -12.81,-12.885 z"
           id="path3477"
           inkscape:connector-curvature="0"
           style="fill:none" />
        <path
           d="m 122.268,32.759 c -43.884,0 -79.585,35.703 -79.585,79.586 0,43.885 35.701,79.586 79.585,79.586 43.884,0 79.586,-35.701 79.586,-79.586 0,-43.883 -35.702,-79.586 -79.586,-79.586 z"
           id="path3479"
           inkscape:connector-curvature="0"
           style="fill:none" />
        <path
           d="m 216.479,102.919 h -7.134 c 0.333,3.098 0.509,6.242 0.509,9.426 0,2.951 -0.149,5.869 -0.436,8.746 h 7.061 c 0.573,0 1.039,-0.467 1.039,-1.041 v -16.09 c 0,-0.574 -0.466,-1.041 -1.039,-1.041 z"
           id="path3481"
           inkscape:connector-curvature="0"
           style="fill:none" />
        <path
           d="m 113.183,199.462 v 6.752 c 0,0.574 0.467,1.041 1.04,1.041 h 16.091 c 0.573,0 1.04,-0.467 1.04,-1.041 v -6.752 c -2.987,0.309 -6.019,0.469 -9.086,0.469 -3.067,0 -6.099,-0.16 -9.085,-0.469 z"
           id="path3483"
           inkscape:connector-curvature="0"
           style="fill:none" />
        <path
           d="m 177.6,180.187 4.86,4.859 c 0.251,0.252 0.538,0.305 0.734,0.305 0.197,0 0.485,-0.055 0.737,-0.307 l 11.377,-11.377 c 0.252,-0.252 0.305,-0.539 0.305,-0.736 0,-0.195 -0.053,-0.482 -0.304,-0.732 l -4.896,-4.898 c -3.817,4.723 -8.111,9.044 -12.813,12.886 z"
           id="path3485"
           inkscape:connector-curvature="0"
           style="fill:none" />
        <path
           d="M 216.479,94.919 H 208.11 C 205.794,83.485 201.244,72.855 194.935,63.501 l 6.032,-6.031 c 3.523,-3.525 3.523,-9.262 -0.001,-12.785 L 189.588,33.306 c -1.708,-1.707 -3.979,-2.646 -6.393,-2.646 -2.415,0 -4.685,0.941 -6.392,2.648 l -6.102,6.1 C 161.353,33.181 150.748,28.701 139.352,26.439 v -8.645 c 0,-4.984 -4.056,-9.039 -9.04,-9.039 h -16.091 c -4.985,0 -9.04,4.055 -9.04,9.039 v 8.643 c -11.396,2.264 -22.002,6.742 -31.35,12.971 l -6.1,-6.1 c -1.707,-1.709 -3.978,-2.648 -6.393,-2.648 -2.415,0 -4.686,0.939 -6.393,2.648 L 43.571,44.685 c -1.707,1.707 -2.647,3.977 -2.647,6.393 0,2.414 0.939,4.686 2.646,6.393 l 6.031,6.031 C 43.293,72.856 38.744,83.486 36.426,94.92 h -8.368 c -4.984,0 -9.039,4.055 -9.039,9.041 v 16.09 c 0,4.984 4.055,9.041 9.039,9.041 h 8.237 c 2.24,11.523 6.745,22.248 13.036,31.689 l -5.76,5.76 c -1.708,1.707 -2.648,3.977 -2.648,6.393 0,2.414 0.939,4.684 2.646,6.391 l 11.379,11.379 c 1.707,1.707 3.977,2.648 6.393,2.648 2.414,0 4.685,-0.941 6.393,-2.648 l 5.689,-5.689 c 9.446,6.369 20.197,10.945 31.76,13.24 v 7.961 c 0,4.984 4.055,9.041 9.04,9.041 h 16.091 c 4.984,0 9.04,-4.057 9.04,-9.041 v -7.961 c 11.562,-2.295 22.312,-6.871 31.76,-13.24 l 5.69,5.689 c 1.707,1.707 3.977,2.648 6.391,2.648 2.415,0 4.686,-0.941 6.394,-2.648 l 11.377,-11.379 c 1.707,-1.707 2.647,-3.977 2.648,-6.391 0.001,-2.414 -0.939,-4.686 -2.647,-6.393 l -5.761,-5.76 c 6.29,-9.441 10.795,-20.166 13.036,-31.689 h 8.237 c 4.984,0 9.039,-4.057 9.039,-9.041 v -16.09 c 0,-4.987 -4.055,-9.042 -9.039,-9.042 z m -181.36,26.172 h -7.061 c -0.572,0 -1.039,-0.467 -1.039,-1.041 v -16.09 c 0,-0.574 0.467,-1.041 1.039,-1.041 h 7.133 c -0.332,3.098 -0.508,6.242 -0.508,9.426 0,2.951 0.149,5.869 0.436,8.746 z M 182.46,38.964 c 0.252,-0.252 0.539,-0.305 0.735,-0.305 0.197,0 0.484,0.053 0.736,0.305 l 11.378,11.377 c 0.405,0.406 0.405,1.066 0,1.473 l -5.2,5.199 c -3.843,-4.701 -8.163,-8.996 -12.887,-12.812 l 5.238,-5.237 z m -69.277,-21.17 c 0,-0.572 0.467,-1.039 1.04,-1.039 h 16.091 c 0.573,0 1.04,0.467 1.04,1.039 v 7.436 c -2.987,-0.311 -6.019,-0.471 -9.086,-0.471 -3.067,0 -6.099,0.16 -9.085,0.471 V 17.794 z M 49.227,51.812 c -0.251,-0.25 -0.304,-0.537 -0.304,-0.734 0,-0.195 0.053,-0.484 0.305,-0.736 L 60.605,38.965 c 0.252,-0.252 0.539,-0.305 0.736,-0.305 0.197,0 0.484,0.053 0.735,0.305 l 5.236,5.236 c -4.724,3.816 -9.044,8.111 -12.886,12.812 l -5.199,-5.201 z m 12.849,133.234 c -0.252,0.252 -0.539,0.305 -0.734,0.305 -0.197,0 -0.484,-0.053 -0.736,-0.305 L 49.229,173.667 c -0.252,-0.252 -0.305,-0.539 -0.305,-0.734 0,-0.197 0.053,-0.484 0.305,-0.736 l 4.896,-4.895 c 3.815,4.723 8.109,9.043 12.811,12.885 l -4.86,4.859 z m 69.278,21.168 c 0,0.574 -0.467,1.041 -1.04,1.041 h -16.091 c -0.573,0 -1.04,-0.467 -1.04,-1.041 v -6.752 c 2.986,0.309 6.018,0.469 9.085,0.469 3.067,0 6.099,-0.16 9.086,-0.469 v 6.752 z m 63.956,-34.016 c 0.251,0.25 0.304,0.537 0.304,0.732 0,0.197 -0.053,0.484 -0.305,0.736 l -11.377,11.377 c -0.252,0.252 -0.54,0.307 -0.737,0.307 -0.196,0 -0.483,-0.053 -0.734,-0.305 l -4.86,-4.859 c 4.702,-3.842 8.996,-8.162 12.813,-12.887 l 4.896,4.899 z m -73.042,19.733 c -43.884,0 -79.585,-35.701 -79.585,-79.586 0,-43.883 35.701,-79.586 79.585,-79.586 43.884,0 79.586,35.703 79.586,79.586 0,43.884 -35.702,79.586 -79.586,79.586 z m 95.25,-71.881 c 0,0.574 -0.466,1.041 -1.039,1.041 h -7.061 c 0.286,-2.877 0.436,-5.795 0.436,-8.746 0,-3.184 -0.176,-6.328 -0.509,-9.426 h 7.134 c 0.573,0 1.039,0.467 1.039,1.041 v 16.09 z"
           id="path3487"
           inkscape:connector-curvature="0" />
      </g>
      <path
         d="m 108.06,121.819 c 0.198,0.295 0.417,0.576 0.633,0.859 l -41.733,35.309 2.852,3.07 c 13.506,14.537 32.625,22.873 52.456,22.873 20.62,0 40.247,-8.898 53.851,-24.416 l 2.704,-3.086 -42.08,-35.047 c 0.634,-1.012 1.162,-2.096 1.575,-3.234 l 49.575,23.17 1.51,-4.07 c 2.954,-7.959 4.451,-16.338 4.451,-24.902 0,-34.355 -24.462,-63.934 -58.165,-70.328 l -4.037,-0.768 -8.755,54.043 c -0.21,-0.008 -0.416,-0.031 -0.628,-0.031 -0.572,0 -1.139,0.029 -1.696,0.086 L 110.329,41.63 106.287,42.552 C 90.736,46.099 76.621,54.925 66.545,67.404 56.316,80.072 50.684,96.033 50.684,112.345 c 0,8.426 1.45,16.676 4.312,24.523 l 1.369,3.754 51.695,-18.803 z M 72.769,72.431 C 80.845,62.427 91.837,55.066 104.05,51.41 l 8.894,46.639 c -4.666,3.053 -7.761,8.318 -7.761,14.299 0,0.664 0.047,1.316 0.121,1.961 L 61.259,130.33 c -1.711,-5.812 -2.576,-11.844 -2.576,-17.984 0,-14.492 5.002,-28.667 14.086,-39.915 z m 113.085,39.914 c 0,6.141 -0.865,12.172 -2.577,17.984 l -44.15,-20.635 c -0.822,-5.244 -4.025,-9.703 -8.479,-12.221 l 7.564,-46.701 c 27.841,7.172 47.642,32.438 47.642,61.573 z m -63.585,-9.084 c 5.01,0 9.085,4.076 9.085,9.086 0,5.01 -4.075,9.086 -9.085,9.086 -5.01,0 -9.086,-4.076 -9.086,-9.086 0,-5.01 4.076,-9.086 9.086,-9.086 z m -7.243,24.537 c 2.202,1.037 4.651,1.635 7.243,1.635 3.191,0 6.17,-0.896 8.729,-2.426 l 36.3,30.234 c -11.897,11.926 -28.087,18.689 -45.029,18.689 -16.212,0 -31.89,-6.273 -43.636,-17.34 l 36.393,-30.792 z"
         id="path3489"
         inkscape:connector-curvature="0" />
      <path
         d="m 340.234,171.19 -5.621,-1.396 c 0.351,-8.062 -0.93,-15.961 -3.605,-23.295 l 5.058,-3.045 c 2.954,-1.779 3.911,-5.629 2.133,-8.586 l -5.743,-9.539 c -1.126,-1.869 -3.181,-3.029 -5.363,-3.029 -1.134,0 -2.248,0.311 -3.223,0.896 l -5.118,3.082 c -5.238,-5.74 -11.611,-10.516 -18.885,-13.938 l 1.442,-5.809 c 0.83,-3.348 -1.217,-6.746 -4.563,-7.58 l -10.805,-2.682 c -0.495,-0.125 -1.004,-0.188 -1.513,-0.188 -2.878,0 -5.373,1.953 -6.067,4.748 l -1.445,5.816 c -0.966,-0.047 -1.933,-0.09 -2.898,-0.09 -7.099,0 -13.953,1.232 -20.345,3.51 l -3.049,-5.064 c -1.124,-1.869 -3.18,-3.031 -5.362,-3.031 -1.134,0 -2.248,0.311 -3.223,0.896 l -9.539,5.744 c -1.431,0.861 -2.441,2.229 -2.845,3.85 -0.403,1.623 -0.15,3.305 0.712,4.734 l 3.018,5.012 c -5.811,5.264 -10.616,11.672 -14.061,18.945 l -5.621,-1.396 c -0.495,-0.121 -1.003,-0.184 -1.51,-0.184 -2.878,0 -5.375,1.951 -6.07,4.748 l -2.683,10.805 c -0.403,1.621 -0.151,3.303 0.711,4.734 0.861,1.432 2.229,2.443 3.852,2.846 l 5.521,1.371 c -0.426,7.994 0.737,15.949 3.443,23.479 l -4.795,2.887 c -1.432,0.861 -2.442,2.229 -2.846,3.852 -0.402,1.621 -0.15,3.303 0.712,4.734 l 5.742,9.537 c 1.124,1.869 3.179,3.031 5.362,3.031 1.134,0 2.249,-0.311 3.224,-0.896 l 4.742,-2.855 c 5.38,5.971 11.866,10.779 19.145,14.186 l -1.324,5.334 c -0.403,1.621 -0.151,3.303 0.711,4.734 0.862,1.431 2.23,2.443 3.852,2.846 l 10.805,2.682 c 0.495,0.125 1.004,0.188 1.513,0.188 2.878,0 5.373,-1.953 6.067,-4.748 l 1.33,-5.357 c 0.967,0.047 1.934,0.088 2.899,0.088 7.217,0 14.181,-1.277 20.662,-3.627 l 2.845,4.727 c 1.125,1.869 3.18,3.029 5.362,3.029 1.134,0 2.249,-0.311 3.224,-0.896 l 9.537,-5.744 c 1.432,-0.861 2.442,-2.229 2.846,-3.85 0.404,-1.621 0.151,-3.303 -0.711,-4.734 l -2.878,-4.779 c 5.813,-5.324 10.601,-11.809 14.009,-19.156 l 5.534,1.375 c 0.495,0.121 1.003,0.184 1.51,0.184 2.877,0 5.373,-1.951 6.068,-4.748 l 2.683,-10.805 c 0.831,-3.35 -1.214,-6.751 -4.563,-7.583 z m -4.365,17.577 -4.75,-1.18 c 0.673,-1.889 1.269,-3.818 1.76,-5.799 0.531,-2.139 0.934,-4.279 1.227,-6.416 l 4.794,1.189 c 0.239,0.061 0.373,0.213 0.443,0.328 0.07,0.117 0.141,0.307 0.081,0.547 l -2.683,10.803 c -0.115,0.459 -0.545,0.608 -0.872,0.528 z m -22.661,31.332 c -0.032,0.133 -0.116,0.316 -0.328,0.443 l -9.537,5.744 c -0.115,0.068 -0.239,0.104 -0.369,0.104 -0.096,0 -0.426,-0.025 -0.62,-0.35 l -2.421,-4.021 c 3.812,-1.797 7.414,-3.982 10.754,-6.516 l 2.44,4.053 c 0.126,0.211 0.115,0.412 0.081,0.543 z m -39.103,2.162 c -4.464,0 -8.946,-0.551 -13.321,-1.639 -14.275,-3.545 -26.315,-12.439 -33.902,-25.041 -7.588,-12.604 -9.812,-27.404 -6.266,-41.682 6.114,-24.615 28.073,-41.807 53.4,-41.807 4.464,0 8.946,0.553 13.321,1.639 29.47,7.32 47.489,37.252 40.168,66.723 -6.114,24.615 -28.073,41.807 -53.4,41.807 z m -10.475,9.994 -10.806,-2.684 c -0.239,-0.059 -0.373,-0.211 -0.443,-0.328 -0.069,-0.115 -0.141,-0.305 -0.081,-0.545 l 1.126,-4.535 c 1.963,0.707 3.971,1.322 6.023,1.832 2.042,0.508 4.109,0.885 6.185,1.18 l -1.132,4.557 c -0.112,0.456 -0.537,0.613 -0.872,0.523 z m -42.488,-26.193 c -0.096,0 -0.424,-0.025 -0.619,-0.35 l -5.743,-9.539 c -0.127,-0.211 -0.114,-0.412 -0.081,-0.545 0.032,-0.131 0.115,-0.316 0.327,-0.443 l 4.081,-2.455 c 0.906,1.939 1.911,3.846 3.031,5.707 1.062,1.762 2.204,3.457 3.418,5.086 l -4.045,2.436 c -0.115,0.067 -0.238,0.103 -0.369,0.103 z m -12.25,-49.055 c -0.069,-0.117 -0.141,-0.307 -0.081,-0.547 l 2.683,-10.803 c 0.09,-0.361 0.42,-0.549 0.698,-0.549 0.059,0 0.117,0.008 0.176,0.021 l 4.798,1.191 c -0.741,2.029 -1.393,4.109 -1.923,6.244 -0.49,1.975 -0.88,3.959 -1.171,5.945 l -4.735,-1.176 c -0.24,-0.059 -0.375,-0.211 -0.445,-0.326 z m 26.134,-43.209 c 0.033,-0.133 0.117,-0.316 0.328,-0.443 l 9.539,-5.744 c 0.114,-0.068 0.237,-0.104 0.367,-0.104 0.096,0 0.425,0.025 0.62,0.35 l 2.61,4.338 c -3.821,1.775 -7.436,3.941 -10.788,6.457 l -2.596,-4.311 c -0.125,-0.211 -0.112,-0.412 -0.08,-0.543 z m 49.401,-12.178 c 0.059,0 0.118,0.006 0.178,0.021 l 10.805,2.684 c 0.386,0.096 0.621,0.488 0.525,0.873 l -1.239,4.994 c -1.955,-0.707 -3.964,-1.322 -6.024,-1.834 -2.042,-0.508 -4.109,-0.885 -6.185,-1.178 l 1.246,-5.016 c 0.093,-0.374 0.426,-0.544 0.694,-0.544 z m 42.664,26.215 c 0.097,0 0.426,0.025 0.621,0.35 l 5.742,9.539 c 0.205,0.34 0.095,0.783 -0.245,0.988 l -4.363,2.627 c -1.795,-3.799 -3.983,-7.4 -6.52,-10.752 l 4.396,-2.648 c 0.116,-0.069 0.239,-0.104 0.369,-0.104 z"
         id="path3491"
         inkscape:connector-curvature="0" />
      <path
         d="m 294.805,122.187 -5.151,-2.367 1.302,5.52 c 0.06,0.252 5.569,24.482 -9.525,32.604 -1.089,-0.871 -2.327,-1.543 -3.678,-1.986 3.979,-5.701 5.413,-13.137 4.135,-21.863 -1.202,-8.201 -4.354,-14.641 -4.487,-14.912 l -0.746,-1.508 -1.683,-0.033 c -23.191,-0.428 -43.374,15.014 -48.984,37.594 -1.405,5.656 -1.808,11.439 -1.194,17.189 l 0.623,5.781 4.101,-4.133 c 0.515,-0.518 12.429,-12.217 32.733,-7.047 -0.011,0.869 0.076,1.727 0.251,2.559 -21.133,-0.549 -31.7,18.701 -31.812,18.91 l -0.71,1.328 0.729,1.318 c 6.646,12.016 18.094,20.803 31.411,24.111 3.949,0.98 7.965,1.465 11.964,1.465 8.03,0 15.993,-1.957 23.201,-5.785 l 8.048,-4.287 -9.086,-0.914 c -0.737,-0.074 -17.574,-2.072 -18.514,-27.314 1.552,-0.504 2.97,-1.322 4.175,-2.393 5.975,16.148 19.315,20.457 28.053,20.457 1.12,0 2.166,-0.07 3.109,-0.195 l 1.225,-0.164 0.696,-1.02 c 3.312,-4.852 5.715,-10.229 7.144,-15.982 5.73,-23.072 -5.762,-47.017 -27.33,-56.933 z m 21.955,55.597 c -1.163,4.684 -3.051,9.084 -5.619,13.1 -4.596,0.191 -20.682,-0.748 -25.462,-21.586 0.433,-2.361 0.146,-4.758 -0.828,-6.932 7.228,-4.23 11.529,-11.838 12.489,-22.219 0.36,-3.896 0.193,-7.549 -0.1,-10.387 16.052,9.923 24.174,29.296 19.52,48.024 z m -53.307,32.094 c -11.313,-2.811 -21.109,-10.074 -27.105,-20.041 2.7,-4.115 12.444,-16.691 29.217,-14.461 1.49,1.551 3.41,2.721 5.646,3.277 0.33,0.082 0.665,0.131 1,0.184 0.761,18.6 9.493,26.586 16.103,29.971 -7.962,2.73 -16.576,3.129 -24.861,1.07 z m -33.399,-43.227 c 0.043,-3.381 0.479,-6.756 1.306,-10.082 4.842,-19.492 21.867,-33.01 41.759,-33.395 2.192,5.283 8.294,22.863 -2.684,32.752 -2.927,0.939 -5.386,2.99 -6.828,5.732 -16.024,-4.081 -27.618,1.095 -33.553,4.993 z m 49.393,-2.716 c 0.866,1.439 1.12,3.129 0.715,4.758 -0.698,2.812 -3.205,4.775 -6.095,4.775 -0.51,0 -1.021,-0.062 -1.521,-0.188 -3.364,-0.836 -5.422,-4.254 -4.586,-7.617 0.698,-2.812 3.204,-4.775 6.094,-4.775 0.51,0 1.021,0.064 1.523,0.189 1.63,0.404 3.004,1.42 3.87,2.858 z"
         id="path3493"
         inkscape:connector-curvature="0" />
      <g
         id="g3495">
        <path
           d="m 214.492,65.532 -3.069,0.871 c -0.247,0.07 -0.391,0.328 -0.32,0.578 l 1.96,6.916 c 0.082,0.291 0.363,0.385 0.575,0.32 l 3.045,-0.861 c -0.478,-1.207 -0.904,-2.439 -1.263,-3.705 -0.387,-1.365 -0.692,-2.74 -0.928,-4.119 z"
           id="path3497"
           inkscape:connector-curvature="0"
           style="fill:none" />
        <path
           d="m 228.966,93.618 c -0.124,0.225 -0.043,0.508 0.181,0.633 l 6.277,3.506 c 0.072,0.041 0.147,0.061 0.227,0.061 0.064,0 0.283,-0.018 0.406,-0.238 l 1.497,-2.68 c -2.494,-1.086 -4.862,-2.43 -7.07,-3.996 l -1.518,2.714 z"
           id="path3499"
           inkscape:connector-curvature="0"
           style="fill:none" />
        <path
           d="m 245.029,16.872 c -0.043,0 -0.086,0.006 -0.128,0.018 l -6.921,1.961 c -0.152,0.043 -0.235,0.143 -0.278,0.221 -0.043,0.076 -0.085,0.199 -0.042,0.35 l 0.913,3.222 c 1.253,-0.499 2.527,-0.958 3.843,-1.331 1.31,-0.37 2.638,-0.649 3.971,-0.883 l -0.912,-3.217 c -0.067,-0.235 -0.278,-0.341 -0.446,-0.341 z"
           id="path3501"
           inkscape:connector-curvature="0"
           style="fill:none" />
        <path
           d="m 221.135,36.36 -2.876,-1.605 c -0.07,-0.039 -0.146,-0.059 -0.224,-0.059 -0.134,0 -0.311,0.062 -0.409,0.238 l -3.505,6.277 c -0.079,0.141 -0.066,0.271 -0.042,0.355 0.023,0.084 0.08,0.199 0.217,0.275 l 2.855,1.596 c 0.522,-1.203 1.106,-2.387 1.755,-3.547 0.684,-1.223 1.431,-2.399 2.229,-3.53 z"
           id="path3503"
           inkscape:connector-curvature="0"
           style="fill:none" />
        <path
           d="m 276.943,23.413 -6.278,-3.504 c -0.071,-0.041 -0.146,-0.061 -0.224,-0.061 -0.133,0 -0.311,0.062 -0.409,0.24 l -1.618,2.897 c 2.501,1.073 4.879,2.396 7.096,3.951 l 1.614,-2.89 c 0.125,-0.223 0.043,-0.506 -0.181,-0.633 z"
           id="path3505"
           inkscape:connector-curvature="0"
           style="fill:none" />
        <path
           d="m 285.146,81.413 2.685,1.498 c 0.19,0.107 0.477,0.102 0.633,-0.18 l 3.506,-6.279 c 0.078,-0.139 0.066,-0.27 0.043,-0.354 -0.024,-0.084 -0.082,-0.201 -0.221,-0.279 l -2.707,-1.512 c -1.066,2.499 -2.384,4.88 -3.939,7.106 z"
           id="path3507"
           inkscape:connector-curvature="0"
           style="fill:none" />
        <path
           d="m 267.608,95.337 c -1.247,0.496 -2.53,0.936 -3.85,1.309 -1.311,0.371 -2.638,0.65 -3.972,0.885 l 0.829,2.926 c 0.084,0.291 0.361,0.385 0.576,0.32 l 6.919,-1.961 c 0.153,-0.045 0.236,-0.145 0.278,-0.221 0.043,-0.076 0.085,-0.199 0.042,-0.352 l -0.822,-2.906 z"
           id="path3509"
           inkscape:connector-curvature="0"
           style="fill:none" />
        <path
           d="m 293.028,43.769 c -0.065,-0.232 -0.278,-0.34 -0.447,-0.34 -0.042,0 -0.085,0.006 -0.127,0.02 l -3.075,0.871 c 0.524,1.295 0.99,2.623 1.377,3.99 0.359,1.268 0.649,2.541 0.877,3.812 l 3.036,-0.859 c 0.246,-0.07 0.39,-0.33 0.319,-0.578 l -1.96,-6.916 z"
           id="path3511"
           inkscape:connector-curvature="0"
           style="fill:none" />
        <path
           d="m 287.314,49.284 c -4.318,-15.242 -18.386,-25.887 -34.209,-25.887 -3.27,0 -6.538,0.455 -9.715,1.355 -9.143,2.59 -16.729,8.586 -21.361,16.881 -4.634,8.297 -5.759,17.9 -3.169,27.043 4.317,15.24 18.384,25.887 34.208,25.887 3.27,0 6.538,-0.457 9.716,-1.357 18.872,-5.348 29.877,-25.051 24.53,-43.922 z"
           id="path3513"
           inkscape:connector-curvature="0"
           style="fill:none" />
        <path
           d="m 237.66,19.421 c -0.043,-0.15 -0.001,-0.273 0.042,-0.35 0.043,-0.078 0.126,-0.178 0.278,-0.221 l 6.921,-1.961 c 0.042,-0.012 0.085,-0.018 0.128,-0.018 0.168,0 0.379,0.105 0.445,0.34 l 0.912,3.217 c 1.189,-0.207 2.384,-0.371 3.584,-0.468 l -1.056,-3.724 c -0.489,-1.732 -2.087,-2.941 -3.886,-2.941 -0.373,0 -0.744,0.051 -1.104,0.152 l -6.921,1.961 c -1.038,0.295 -1.899,0.977 -2.425,1.918 -0.527,0.943 -0.654,2.035 -0.36,3.07 l 1.058,3.731 c 1.07,-0.544 2.17,-1.039 3.296,-1.486 l -0.912,-3.22 z"
           id="path3515"
           inkscape:connector-curvature="0" />
        <path
           d="m 270.032,20.089 c 0.099,-0.178 0.276,-0.24 0.409,-0.24 0.077,0 0.152,0.02 0.224,0.061 l 6.278,3.504 c 0.225,0.127 0.306,0.41 0.181,0.635 l -1.614,2.89 c 0.988,0.692 1.938,1.436 2.858,2.216 l 1.877,-3.361 c 1.085,-1.943 0.389,-4.41 -1.556,-5.5 l -6.279,-3.506 c -0.602,-0.336 -1.282,-0.514 -1.969,-0.514 -1.464,0 -2.816,0.793 -3.531,2.072 l -1.887,3.38 c 1.151,0.372 2.284,0.787 3.391,1.262 l 1.618,-2.899 z"
           id="path3517"
           inkscape:connector-curvature="0" />
        <path
           d="m 298.429,49.712 -1.961,-6.92 c -0.491,-1.73 -2.09,-2.939 -3.888,-2.939 -0.372,0 -0.742,0.053 -1.102,0.154 l -3.61,1.023 c -2.377,-4.588 -5.634,-8.601 -9.501,-11.877 -0.921,-0.78 -1.87,-1.523 -2.858,-2.216 -2.217,-1.555 -4.595,-2.878 -7.096,-3.951 -1.106,-0.475 -2.239,-0.89 -3.391,-1.262 -3.789,-1.226 -7.795,-1.903 -11.918,-1.903 -1.046,0 -2.091,0.055 -3.135,0.14 -1.2,0.097 -2.395,0.261 -3.584,0.468 -1.333,0.233 -2.661,0.513 -3.971,0.883 -1.315,0.373 -2.59,0.832 -3.843,1.331 -1.126,0.447 -2.226,0.942 -3.296,1.486 -4.561,2.319 -8.609,5.48 -11.929,9.372 l -3.345,-1.867 c -0.602,-0.336 -1.282,-0.514 -1.968,-0.514 -1.464,0 -2.816,0.793 -3.531,2.07 L 211,39.468 c -0.527,0.943 -0.655,2.037 -0.36,3.076 0.295,1.039 0.977,1.9 1.916,2.422 l 3.312,1.85 c -1.607,4.883 -2.227,10.008 -1.827,15.129 l -3.592,1.018 c -2.142,0.607 -3.392,2.846 -2.787,4.992 l 1.961,6.92 c 0.491,1.73 2.091,2.939 3.889,2.939 0.371,0 0.742,-0.053 1.102,-0.154 l 3.555,-1.008 c 2.355,4.637 5.594,8.707 9.466,12.023 l -1.787,3.199 c -1.086,1.943 -0.388,4.41 1.557,5.5 l 6.277,3.504 c 0.603,0.338 1.284,0.516 1.972,0.516 1.464,0 2.816,-0.795 3.528,-2.07 l 1.754,-3.141 c 3.851,1.268 7.936,1.955 12.135,1.955 1.046,0 2.092,-0.055 3.136,-0.139 l 0.972,3.432 c 0.49,1.73 2.089,2.939 3.888,2.939 0.371,0 0.742,-0.051 1.103,-0.154 l 6.919,-1.961 c 1.038,-0.293 1.9,-0.975 2.427,-1.918 0.526,-0.941 0.654,-2.033 0.359,-3.07 l -0.972,-3.426 c 4.692,-2.396 8.76,-5.672 12.047,-9.561 l 3.141,1.752 c 0.602,0.336 1.281,0.514 1.968,0.514 1.463,0 2.815,-0.793 3.531,-2.07 l 3.506,-6.279 c 0.526,-0.941 0.655,-2.031 0.361,-3.07 -0.294,-1.039 -0.975,-1.9 -1.917,-2.428 l -3.183,-1.777 c 1.555,-4.826 2.184,-9.984 1.743,-15.213 l 3.547,-1.006 c 2.138,-0.606 3.388,-2.845 2.782,-4.991 z m -84.792,24.506 c -0.212,0.064 -0.493,-0.029 -0.575,-0.32 l -1.96,-6.916 c -0.07,-0.25 0.073,-0.508 0.32,-0.578 l 3.069,-0.871 c 0.236,1.379 0.541,2.754 0.928,4.119 0.358,1.266 0.785,2.498 1.263,3.705 l -3.045,0.861 z m 0.659,-32.375 c -0.137,-0.076 -0.193,-0.191 -0.217,-0.275 -0.024,-0.084 -0.037,-0.215 0.042,-0.355 l 3.505,-6.277 c 0.099,-0.176 0.275,-0.238 0.409,-0.238 0.078,0 0.153,0.02 0.224,0.059 l 2.876,1.605 c -0.798,1.131 -1.545,2.307 -2.229,3.531 -0.648,1.16 -1.232,2.344 -1.755,3.547 l -2.855,-1.597 z m 21.761,55.736 c -0.123,0.221 -0.342,0.238 -0.406,0.238 -0.079,0 -0.154,-0.02 -0.227,-0.061 l -6.277,-3.506 c -0.224,-0.125 -0.305,-0.408 -0.181,-0.633 l 1.518,-2.715 c 2.208,1.566 4.576,2.91 7.07,3.996 l -1.497,2.681 z m 32.332,1.016 c -0.042,0.076 -0.125,0.176 -0.278,0.221 l -6.919,1.961 c -0.215,0.064 -0.492,-0.029 -0.576,-0.32 l -0.829,-2.926 c 1.334,-0.234 2.661,-0.514 3.972,-0.885 1.319,-0.373 2.603,-0.812 3.85,-1.309 l 0.823,2.906 c 0.042,0.153 0,0.276 -0.043,0.352 z m -5.605,-5.389 c -3.178,0.9 -6.446,1.357 -9.716,1.357 -15.824,0 -29.891,-10.646 -34.208,-25.887 -2.59,-9.143 -1.465,-18.746 3.169,-27.043 4.633,-8.295 12.219,-14.291 21.361,-16.881 3.177,-0.9 6.445,-1.355 9.715,-1.355 15.823,0 29.891,10.645 34.209,25.887 5.347,18.871 -5.658,38.574 -24.53,43.922 z m 29.008,-17.387 c 0.139,0.078 0.196,0.195 0.221,0.279 0.023,0.084 0.035,0.215 -0.043,0.354 l -3.506,6.279 c -0.156,0.281 -0.442,0.287 -0.633,0.18 l -2.685,-1.498 c 1.555,-2.227 2.873,-4.607 3.938,-7.105 l 2.708,1.511 z m 2.876,-24.556 -3.036,0.859 c -0.228,-1.271 -0.518,-2.545 -0.877,-3.812 -0.387,-1.367 -0.853,-2.695 -1.377,-3.99 l 3.075,-0.871 c 0.042,-0.014 0.085,-0.02 0.127,-0.02 0.169,0 0.382,0.107 0.447,0.34 l 1.96,6.916 c 0.071,0.248 -0.072,0.507 -0.319,0.578 z"
           id="path3519"
           inkscape:connector-curvature="0" />
      </g>
      <path
         d="m 222.575,67.624 c 3.849,13.586 16.39,23.076 30.497,23.076 2.915,0 5.829,-0.406 8.659,-1.209 16.824,-4.768 26.634,-22.332 21.868,-39.154 -3.85,-13.588 -16.391,-23.076 -30.498,-23.076 -2.915,0 -5.829,0.406 -8.659,1.207 -8.149,2.311 -14.912,7.654 -19.042,15.051 -4.131,7.394 -5.134,15.955 -2.825,24.105 z m 41.456,1.621 c 1.731,-1.732 4.539,-1.734 6.271,-0.002 1.732,1.732 1.732,4.541 0,6.273 -1.731,1.732 -4.539,1.73 -6.271,-0.002 -1.732,-1.732 -1.733,-4.536 0,-6.269 z m 0,-27.254 c 1.732,-1.732 4.541,-1.732 6.273,0 1.731,1.732 1.73,4.541 -10e-4,6.271 -1.732,1.734 -4.539,1.732 -6.271,0 -1.732,-1.73 -1.734,-4.538 -10e-4,-6.271 z m 4.345,16.764 c 0,-2.449 1.984,-4.436 4.435,-4.436 2.449,0 4.436,1.986 4.436,4.436 0,2.45 -1.986,4.434 -4.436,4.434 -2.45,-10e-4 -4.435,-1.985 -4.435,-4.434 z m -10.4,-19.272 c 0,2.449 -1.985,4.434 -4.435,4.434 -2.45,0 -4.436,-1.984 -4.436,-4.434 0,-2.45 1.986,-4.436 4.436,-4.436 2.45,0 4.435,1.987 4.435,4.436 z m -6.971,12.149 c 0.681,-0.193 1.382,-0.291 2.084,-0.291 3.397,0 6.418,2.285 7.346,5.559 1.146,4.051 -1.216,8.281 -5.267,9.428 -0.681,0.193 -1.382,0.291 -2.085,0.291 -3.397,0 -6.418,-2.285 -7.345,-5.557 -0.556,-1.963 -0.313,-4.025 0.681,-5.807 0.994,-1.782 2.623,-3.068 4.586,-3.623 z m 6.971,26.392 c 0,2.451 -1.985,4.436 -4.435,4.436 -2.45,0 -4.436,-1.984 -4.436,-4.436 0,-2.449 1.986,-4.436 4.436,-4.436 2.45,0 4.435,1.987 4.435,4.436 z M 243.05,75.517 c -1.733,1.732 -4.54,1.732 -6.271,0 -1.732,-1.732 -1.733,-4.539 -0.001,-6.271 1.731,-1.732 4.541,-1.732 6.272,0 1.733,1.732 1.732,4.538 0,6.271 z m -0.001,-27.254 c -1.732,1.732 -4.54,1.73 -6.271,0 -1.732,-1.732 -1.732,-4.539 -0.001,-6.271 1.732,-1.732 4.54,-1.732 6.272,0 1.732,1.73 1.732,4.54 0,6.271 z m -4.344,10.492 c 0,2.449 -1.986,4.434 -4.436,4.434 -2.45,0 -4.435,-1.984 -4.435,-4.434 0,-2.45 1.984,-4.436 4.435,-4.436 2.449,0 4.436,1.987 4.436,4.436 z"
         id="path3521"
         inkscape:connector-curvature="0" />
    </g>
    <path
       id="path3"
       inkscape:connector-curvature="0"
       d="m 185.88744,181.12783 c 0,-0.70749 -0.004,-1.44442 -0.06,-2.14101 l -7.55133,-2.37866 c -0.39353,-1.84014 -1.00074,-3.60942 -1.84341,-5.23262 l 4.16212,-6.65851 c -0.81433,-1.13483 -1.70496,-2.21406 -2.67627,-3.21043 l -7.25372,2.97278 c -1.47494,-1.15009 -3.05999,-2.1312 -4.81619,-2.85396 l -1.07051,-7.67015 c -1.33759,-0.34012 -2.69698,-0.63227 -4.10215,-0.7729 l -3.68573,6.89616 c -1.92953,0.0774 -3.77512,0.44586 -5.53023,1.01055 l -5.76787,-5.23262 c -1.26019,0.60502 -2.50294,1.29943 -3.62686,2.08105 l 1.60576,7.67015 c -1.36811,1.25692 -2.51711,2.69916 -3.50803,4.28094 l -7.9078,-0.29543 c -0.56905,1.26019 -1.04871,2.57162 -1.42698,3.92447 l 6.24317,4.87615 c -0.11555,0.8612 -0.17878,1.72676 -0.17878,2.61522 0,0.96585 0.12536,1.8663 0.23765,2.794 l -6.30313,4.93501 c 0.35756,1.35285 0.84049,2.59778 1.42698,3.8656 l 7.96775,-0.29651 c 0.98548,1.50874 2.14865,2.89756 3.44917,4.10215 l -1.66463,7.90889 c 1.149,0.78162 2.298,1.48149 3.56691,2.07997 l 6.00552,-5.41031 c 1.72022,0.50581 3.48187,0.8056 5.29149,0.89172 l 3.80564,7.1349 c 1.4019,-0.13627 2.76456,-0.387 4.10215,-0.71295 l 1.07051,-7.96775 c 1.65918,-0.69005 3.22569,-1.62211 4.63741,-2.67627 l 7.4325,3.03165 c 0.97131,-0.98984 1.86303,-2.07234 2.67627,-3.21043 l -4.22207,-6.77842 c 0.83395,-1.58505 1.43788,-3.2475 1.84341,-5.05384 l 7.61019,-2.43753 c 0.0523,-0.6955 0.061,-1.37356 0.061,-2.08106 l 0,0 z m -18.19534,-0.17878 c 0,5.45392 -4.41721,9.87003 -9.87003,9.87003 -5.45392,0 -9.87112,-4.41611 -9.87112,-9.87003 0,-5.45392 4.4172,-9.87112 9.87112,-9.87112 5.45392,0 9.87003,4.4172 9.87003,9.87112 l 0,0 z" />
    <path
       id="path4276"
       inkscape:connector-curvature="0"
       d="m 239.84012,181.12783 c 0,-0.70749 -0.004,-1.44442 -0.06,-2.14101 l -7.55132,-2.37866 c -0.39354,-1.84014 -1.00074,-3.60942 -1.84232,-5.23262 l 4.16102,-6.65851 c -0.81433,-1.13483 -1.70496,-2.21406 -2.67518,-3.21043 l -7.25372,2.97278 c -1.47603,-1.15009 -3.06108,-2.1312 -4.81619,-2.85396 l -1.0705,-7.67015 c -1.33759,-0.34012 -2.69698,-0.63227 -4.10325,-0.7729 l -3.68573,6.89725 c -1.93062,0.0774 -3.7762,0.44586 -5.53022,1.01055 l -5.76788,-5.23262 c -1.25909,0.60502 -2.50293,1.29943 -3.62685,2.08105 l 1.60576,7.67015 c -1.36812,1.25692 -2.51711,2.69916 -3.50804,4.28094 l -7.90889,-0.29543 c -0.56795,1.26019 -1.04761,2.57162 -1.42698,3.92447 l 6.24317,4.87615 c -0.11446,0.8612 -0.17769,1.72676 -0.17769,2.61522 0,0.96585 0.12537,1.8663 0.23765,2.794 l -6.30204,4.93501 c 0.35757,1.35285 0.84049,2.59778 1.42698,3.86451 l 7.96885,-0.29651 c 0.98438,1.50874 2.14973,2.89865 3.44808,4.10324 l -1.66463,7.90889 c 1.15008,0.78162 2.29908,1.48149 3.56799,2.07997 l 6.00443,-5.41031 c 1.72023,0.50582 3.48297,0.8056 5.29258,0.89172 l 3.80455,7.1349 c 1.403,-0.13736 2.76566,-0.387 4.10325,-0.71295 l 1.0705,-7.96884 c 1.65809,-0.68896 3.2257,-1.62102 4.63741,-2.67518 l 7.4325,3.03165 c 0.97022,-0.99093 1.86303,-2.07234 2.67518,-3.21043 l -4.22098,-6.77842 c 0.83286,-1.58505 1.43679,-3.2475 1.84232,-5.05384 l 7.61019,-2.43753 c 0.0512,-0.69659 0.06,-1.37465 0.06,-2.08215 l 0,0 z m -18.19426,-0.17878 c 0,5.45392 -4.4172,9.87003 -9.87003,9.87003 -5.455,0 -9.87112,-4.41611 -9.87112,-9.87003 0,-5.45392 4.41612,-9.87112 9.87112,-9.87112 5.45283,0 9.87003,4.4172 9.87003,9.87112 l 0,0 z" />
    <path
       id="path4278"
       inkscape:connector-curvature="0"
       d="m 212.86378,134.45831 c 0,-0.70749 -0.004,-1.44442 -0.06,-2.13992 l -7.55132,-2.37866 c -0.39354,-1.84014 -1.00074,-3.61051 -1.84232,-5.23262 l 4.16102,-6.6596 c -0.81432,-1.13374 -1.70496,-2.21406 -2.67517,-3.21043 l -7.25372,2.97387 c -1.47604,-1.15009 -3.06109,-2.1312 -4.81619,-2.85396 l -1.07051,-7.67015 c -1.33759,-0.34012 -2.69698,-0.63227 -4.10325,-0.7729 l -3.68572,6.89725 c -1.92953,0.0785 -3.77512,0.44586 -5.53023,1.01055 l -5.76787,-5.23262 c -1.26019,0.60502 -2.50294,1.29943 -3.62795,2.08105 l 1.60576,7.67015 c -1.36811,1.25801 -2.51711,2.69807 -3.50804,4.28094 l -7.90779,-0.29761 c -0.56905,1.26128 -1.04871,2.5738 -1.42698,3.92447 l 6.24317,4.87615 c -0.11556,0.86229 -0.17878,1.72676 -0.17878,2.61631 0,0.96476 0.12536,1.8663 0.23764,2.794 l -6.30312,4.93501 c 0.35756,1.35285 0.84049,2.59778 1.42698,3.86451 l 7.96775,-0.2976 c 0.98548,1.50873 2.14864,2.89865 3.44917,4.10324 l -1.66463,7.9078 c 1.149,0.78162 2.29799,1.48257 3.5669,2.08106 l 6.00553,-5.41032 c 1.72022,0.50582 3.48296,0.80561 5.29148,0.89173 l 3.80564,7.1349 c 1.403,-0.13627 2.76566,-0.387 4.10325,-0.71295 l 1.07051,-7.96775 c 1.65808,-0.68896 3.22569,-1.62211 4.63741,-2.67627 l 7.4325,3.03274 c 0.97021,-0.99093 1.86303,-2.07343 2.67517,-3.21043 l -4.22098,-6.77842 c 0.83286,-1.58505 1.43679,-3.2475 1.84232,-5.05384 l 7.61019,-2.43753 c 0.0534,-0.6955 0.0621,-1.37465 0.0621,-2.08215 l 0,0 z m -18.19534,-0.17878 c 0,5.45283 -4.41721,9.87003 -9.87003,9.87003 -5.45392,0 -9.87112,-4.4172 -9.87112,-9.87003 0,-5.45283 4.4172,-9.87003 9.87112,-9.87003 5.45391,-10e-4 9.87003,4.41611 9.87003,9.87003 z" />
    <path
       style="fill:none;stroke:#000000;stroke-width:5.8743;stroke-linecap:round;stroke-linejoin:round;stroke-miterlimit:10"
       inkscape:connector-curvature="0"
       stroke-miterlimit="10"
       d="m 569.87947,492.86949 v -13.218 h -10.55699 c -0.748,-3.27 -2.04,-6.328 -3.772,-9.086 l 7.47,-7.472 -9.345,-9.347 -7.472,7.473 c -2.758,-1.733 -5.813,-3.024 -9.087,-3.773 v -10.558 h -13.217 v 10.558 c -3.271,0.749 -6.329,2.04 -9.087,3.773 l -7.472,-7.473 -9.345,9.347 7.472,7.472 c -1.734,2.758 -3.026,5.816 -3.774,9.086 h -10.556 v 13.218 h 10.557 c 0.748,3.271 2.04,6.328 3.774,9.086 l -7.472,7.472 9.345,9.346 7.472,-7.472 c 2.758,1.732 5.816,3.024 9.087,3.771 v 10.56 h 13.216 v -10.56 c 3.273,-0.747 6.329,-2.039 9.087,-3.771 l 7.472,7.472 9.345,-9.346 -7.47,-7.472 c 1.732,-2.758 3.024,-5.815 3.772,-9.086 h 10.55699 z"
       id="path3-1" />
    <circle
       transform="translate(480.32648,436.32949)"
       sodipodi:ry="5.756"
       sodipodi:rx="5.756"
       sodipodi:cy="49.931"
       sodipodi:cx="50.182999"
       cx="50.182999"
       cy="49.931"
       r="5.756"
       id="circle5" />
    <g
       transform="matrix(-2.5270625,0,0,-2.5270625,274.1153,119.41849)"
       id="settings_6_">
      <path
         style="fill:#000000"
         inkscape:connector-curvature="0"
         d="m 31.357,21.611 h -0.809 c -0.174,-0.536 -0.387,-1.062 -0.636,-1.573 l 0.34,-0.336 c 0.735,-0.735 1.159,-1.747 1.159,-2.77 0,-1.022 -0.405,-2.005 -1.159,-2.791 -1.49,-1.487 -4.069,-1.483 -5.559,0 l -0.308,0.308 c -0.548,-0.281 -1.112,-0.511 -1.687,-0.696 v -1.099 c 0,-2.167 -1.764,-3.928 -3.927,-3.928 -2.166,0 -3.929,1.761 -3.929,3.928 v 1.095 c -0.509,0.165 -1.002,0.364 -1.476,0.595 l -0.75,-0.748 c -1.531,-1.475 -4.057,-1.465 -5.55,0.025 -1.498,1.526 -1.5,4.011 0.008,5.55 l 0.653,0.654 c -0.303,0.579 -0.552,1.177 -0.748,1.786 h -0.84 c -2.164,0 -3.928,1.761 -3.928,3.929 0,2.165 1.764,3.927 3.928,3.927 h 0.846 c 0.183,0.574 0.417,1.138 0.692,1.689 l -0.814,0.816 c -0.74,0.735 -1.158,1.747 -1.158,2.77 0,1.023 0.403,2.009 1.158,2.79 1.487,1.488 4.072,1.488 5.561,0 l 0.839,-0.839 c 0.511,0.254 1.039,0.468 1.578,0.637 v 0.542 c 0,2.168 1.763,3.928 3.93,3.928 2.162,0 3.926,-1.76 3.926,-3.928 v -0.543 c 0.612,-0.196 1.211,-0.447 1.796,-0.753 L 24.926,37 c 1.466,1.47 4.06,1.474 5.538,0 1.531,-1.537 1.531,-4.029 0,-5.56 l -0.5,-0.502 c 0.232,-0.475 0.433,-0.968 0.595,-1.475 h 0.799 c 2.167,0 3.928,-1.761 3.928,-3.926 -0.001,-2.165 -1.762,-3.926 -3.929,-3.926 z m 0,5.325 h -2.784 l -0.219,0.996 c -0.199,0.922 -0.549,1.783 -1.032,2.565 l -0.527,0.852 1.884,1.881 c 0.545,0.545 0.545,1.438 0,1.982 -0.534,0.532 -1.429,0.538 -1.972,-0.008 L 24.86,33.39 24.012,33.933 c -0.906,0.575 -1.864,0.978 -2.845,1.192 L 20.17,35.34 v 2.532 c 0,0.785 -0.615,1.397 -1.397,1.397 -0.772,0 -1.4,-0.628 -1.4,-1.397 V 35.34 l -1,-0.215 c -0.933,-0.202 -1.83,-0.563 -2.669,-1.077 l -0.851,-0.522 -2.217,2.221 c -0.53,0.53 -1.469,0.513 -1.964,0.017 -0.274,-0.29 -0.435,-0.66 -0.435,-1.021 0,-0.358 0.151,-0.715 0.417,-0.979 l 2.192,-2.197 -0.517,-0.85 C 9.787,29.827 9.401,28.888 9.185,27.925 L 8.961,26.937 H 6.144 c -0.773,0 -1.399,-0.625 -1.399,-1.396 0,-0.772 0.626,-1.399 1.399,-1.399 h 2.828 l 0.217,-0.998 c 0.212,-0.985 0.613,-1.941 1.192,-2.845 L 10.929,19.442 8.874,17.391 C 8.337,16.837 8.334,15.942 8.867,15.4 c 0.539,-0.538 1.436,-0.522 1.981,0 l 2.116,2.108 0.851,-0.526 c 0.78,-0.485 1.645,-0.833 2.569,-1.036 l 0.991,-0.219 v -3.078 c 0,-0.772 0.629,-1.401 1.4,-1.401 0.784,0 1.397,0.615 1.397,1.401 v 3.072 l 0.988,0.223 c 0.961,0.217 1.901,0.605 2.792,1.149 l 0.847,0.518 1.685,-1.682 c 0.532,-0.533 1.47,-0.514 1.965,-0.019 0.277,0.286 0.436,0.659 0.436,1.017 0,0.361 -0.15,0.716 -0.415,0.98 l -1.698,1.695 0.501,0.844 c 0.492,0.837 0.871,1.776 1.093,2.715 l 0.228,0.972 h 2.771 c 0.771,0 1.398,0.628 1.398,1.4 -0.005,0.778 -0.635,1.403 -1.406,1.403 z"
         id="path4" />
      <path
         style="fill:#000000"
         inkscape:connector-curvature="0"
         d="m 18.746,20.09 c -2.845,0 -5.159,2.324 -5.159,5.185 0,2.847 2.313,5.161 5.159,5.161 2.847,0 5.163,-2.314 5.163,-5.161 0,-2.861 -2.316,-5.185 -5.163,-5.185 z m 0,7.813 c -1.448,0 -2.63,-1.183 -2.63,-2.629 0,-1.465 1.182,-2.657 2.63,-2.657 1.454,0 2.634,1.192 2.634,2.657 -10e-4,1.452 -1.18,2.629 -2.634,2.629 z"
         id="path6" />
      <path
         style="fill:#000000"
         inkscape:connector-curvature="0"
         d="m 46.191,15.038 c 0.285,-0.321 0.485,-0.716 0.561,-1.141 C 46.863,13.294 46.733,12.671 46.37,12.122 45.758,11.233 44.55,10.871 43.564,11.26 43.608,10.725 43.465,10.191 43.158,9.744 42.8,9.222 42.258,8.875 41.635,8.761 l -0.43,-0.043 c -1.007,0 -1.884,0.633 -2.217,1.554 C 38.643,9.927 38.207,9.693 37.732,9.609 L 37.313,9.571 c -0.48,0 -0.948,0.145 -1.355,0.428 -0.969,0.676 -1.273,1.97 -0.756,3.01 h -0.085 c -1.141,0 -2.116,0.815 -2.324,1.941 -0.21,1.144 0.449,2.252 1.507,2.643 -0.401,0.35 -0.679,0.832 -0.77,1.347 -0.116,0.599 0.014,1.225 0.379,1.78 0.663,0.964 2.036,1.292 3.058,0.744 0.064,1.058 0.844,1.98 1.936,2.182 l 0.432,0.042 c 0.993,0 1.863,-0.623 2.206,-1.53 0.338,0.346 0.779,0.588 1.26,0.673 l 0.416,0.039 c 0.477,0 0.946,-0.146 1.349,-0.422 0.929,-0.64 1.257,-1.828 0.85,-2.834 1.115,-0.023 2.064,-0.832 2.269,-1.938 0.208,-1.138 -0.445,-2.243 -1.494,-2.638 z m -2.909,2.672 c -0.12,0.283 -0.281,0.541 -0.479,0.756 l -0.602,0.662 -0.729,0.296 c -0.328,0.134 -0.661,0.208 -0.987,0.217 l -0.85,0.026 -0.789,-0.327 c -0.283,-0.116 -0.557,-0.292 -0.791,-0.499 l -0.646,-0.581 -0.28,-0.737 c -0.125,-0.327 -0.193,-0.656 -0.206,-0.975 l -0.032,-0.842 0.329,-0.792 c 0.128,-0.303 0.314,-0.584 0.551,-0.842 l 0.546,-0.58 0.828,-0.324 c 0.273,-0.105 0.57,-0.167 0.876,-0.181 l 0.848,-0.031 0.769,0.328 c 0.301,0.129 0.585,0.314 0.844,0.544 l 0.618,0.55 0.278,0.758 c 0.112,0.308 0.182,0.64 0.198,0.965 l 0.043,0.807 -0.337,0.802 z"
         id="path8" />
    </g>
    <g
       transform="translate(24.575266,105.75102)"
       id="Your_Icon">
      <path
         style="fill:#000000"
         inkscape:connector-curvature="0"
         d="m 55.21,15.933 -4.069,1.898 c -2.122,-3.08 -4.869,-5.554 -7.998,-7.326 L 44.781,6.011 C 45.548,3.899 44.457,1.564 42.344,0.795 40.234,0.026 37.899,1.116 37.13,3.228 L 35.496,7.72 C 31.96,7.069 28.263,7.199 24.658,8.192 L 22.76,4.123 C 21.81,2.084 19.391,1.203 17.352,2.154 15.316,3.106 14.432,5.523 15.385,7.562 l 1.896,4.069 c -3.076,2.122 -5.552,4.871 -7.326,7.998 L 5.463,17.993 c -2.112,-0.769 -4.445,0.324 -5.215,2.435 -0.771,2.11 0.32,4.445 2.431,5.214 l 4.492,1.638 c -0.651,3.534 -0.523,7.229 0.47,10.836 l -4.069,1.896 c -2.034,0.948 -2.917,3.371 -1.967,5.408 0.95,2.039 3.371,2.917 5.408,1.969 l 4.069,-1.898 c 2.124,3.08 4.869,5.552 7.998,7.326 l -1.611,4.427 c -0.767,2.112 0.323,4.449 2.433,5.214 2.11,0.771 4.447,-0.319 5.216,-2.431 l 1.611,-4.425 c 3.534,0.651 7.233,0.521 10.836,-0.472 l 1.898,4.069 c 0.948,2.037 3.371,2.917 5.408,1.97 2.039,-0.952 2.917,-3.373 1.967,-5.41 l -1.896,-4.067 c 3.078,-2.122 5.554,-4.872 7.326,-8 l 4.494,1.636 c 2.112,0.767 4.447,-0.321 5.216,-2.433 0.767,-2.112 -0.324,-4.447 -2.431,-5.216 l -4.494,-1.638 c 0.651,-3.534 0.521,-7.226 -0.472,-10.834 l 4.069,-1.896 c 2.037,-0.952 2.917,-3.373 1.97,-5.408 -0.953,-2.042 -3.372,-2.921 -5.41,-1.97 z M 37.971,46.367 c -8.112,3.782 -17.786,0.262 -21.568,-7.849 -3.78,-8.107 -0.258,-17.784 7.849,-21.564 8.112,-3.784 17.786,-0.26 21.566,7.849 3.785,8.11 0.263,17.781 -7.847,21.564 z"
         id="path6-5" />
      <path
         style="fill:#000000"
         inkscape:connector-curvature="0"
         d="m 60.257,68.313 -2.708,1.264 C 56.137,67.526 54.308,65.878 52.223,64.7 l 1.092,-2.993 c 0.509,-1.406 -0.216,-2.96 -1.624,-3.473 -1.404,-0.513 -2.958,0.214 -3.471,1.62 l -1.089,2.991 c -2.354,-0.433 -4.814,-0.346 -7.214,0.315 l -1.263,-2.71 c -0.633,-1.357 -2.244,-1.943 -3.601,-1.312 -1.355,0.635 -1.943,2.244 -1.31,3.601 l 1.263,2.71 c -2.049,1.414 -3.697,3.243 -4.877,5.324 l -2.993,-1.09 c -1.406,-0.511 -2.958,0.218 -3.471,1.621 -0.513,1.406 0.214,2.96 1.617,3.471 l 2.993,1.09 c -0.433,2.354 -0.35,4.816 0.311,7.214 l -2.708,1.264 c -1.355,0.633 -1.943,2.244 -1.31,3.601 0.633,1.357 2.244,1.941 3.601,1.31 l 2.708,-1.263 c 1.414,2.051 3.243,3.697 5.326,4.879 l -1.074,2.946 c -0.511,1.406 0.216,2.962 1.621,3.473 1.404,0.513 2.96,-0.214 3.471,-1.619 l 1.074,-2.946 c 2.352,0.433 4.814,0.346 7.214,-0.315 l 1.261,2.71 c 0.633,1.355 2.246,1.943 3.601,1.31 1.357,-0.633 1.943,-2.244 1.31,-3.601 L 53.42,92.12 c 2.049,-1.414 3.697,-3.243 4.877,-5.324 l 2.991,1.086 c 1.406,0.513 2.962,-0.214 3.475,-1.617 0.509,-1.406 -0.216,-2.962 -1.62,-3.475 L 60.15,81.699 c 0.433,-2.352 0.348,-4.811 -0.313,-7.21 l 2.708,-1.265 c 1.357,-0.633 1.943,-2.244 1.31,-3.599 -0.629,-1.359 -2.239,-1.945 -3.598,-1.312 z M 48.783,88.574 c -5.4,2.519 -11.841,0.175 -14.36,-5.225 -2.517,-5.4 -0.173,-11.841 5.227,-14.357 5.4,-2.519 11.839,-0.173 14.356,5.225 2.52,5.4 0.174,11.839 -5.223,14.357 z"
         id="path8-0" />
      <path
         style="fill:#000000"
         inkscape:connector-curvature="0"
         d="m 95.33,29.997 -2.71,1.261 c -1.412,-2.049 -3.241,-3.697 -5.324,-4.877 l 1.091,-2.993 c 0.511,-1.404 -0.216,-2.96 -1.624,-3.471 -1.404,-0.513 -2.958,0.212 -3.471,1.617 l -1.089,2.993 c -2.354,-0.435 -4.814,-0.348 -7.214,0.313 l -1.263,-2.71 c -0.633,-1.355 -2.242,-1.943 -3.599,-1.31 -1.357,0.633 -1.945,2.244 -1.312,3.601 l 1.263,2.708 c -2.049,1.414 -3.695,3.243 -4.877,5.324 L 62.21,31.365 c -1.406,-0.511 -2.96,0.216 -3.471,1.621 -0.515,1.404 0.212,2.96 1.618,3.471 l 2.991,1.09 c -0.433,2.354 -0.348,4.814 0.313,7.214 l -2.71,1.261 c -1.353,0.633 -1.943,2.244 -1.308,3.601 0.631,1.357 2.244,1.943 3.601,1.31 l 2.706,-1.261 c 1.414,2.049 3.243,3.695 5.326,4.877 l -1.072,2.946 c -0.513,1.408 0.214,2.962 1.62,3.473 1.404,0.513 2.96,-0.214 3.473,-1.619 l 1.072,-2.946 c 2.352,0.433 4.814,0.348 7.214,-0.313 l 1.264,2.708 c 0.631,1.357 2.244,1.943 3.599,1.31 1.357,-0.633 1.943,-2.244 1.31,-3.599 l -1.261,-2.708 c 2.049,-1.414 3.697,-3.245 4.877,-5.326 l 2.991,1.088 c 1.408,0.513 2.962,-0.214 3.475,-1.619 0.511,-1.406 -0.216,-2.96 -1.62,-3.473 L 95.225,43.38 c 0.433,-2.354 0.348,-4.811 -0.313,-7.212 l 2.71,-1.263 c 1.355,-0.633 1.941,-2.244 1.308,-3.599 -0.634,-1.358 -2.243,-1.944 -3.6,-1.309 z M 83.853,50.259 c -5.4,2.517 -11.841,0.173 -14.36,-5.227 -2.517,-5.397 -0.173,-11.841 5.227,-14.357 5.4,-2.519 11.839,-0.173 14.355,5.227 2.522,5.399 0.176,11.836 -5.222,14.357 z"
         id="path10" />
    </g>
  </g>
</svg>
